<?xml version="1.0" encoding="UTF-8"?>
<svg id="Layer_1" data-name="Layer 1" xmlns="http://www.w3.org/2000/svg" viewBox="0 0 142.2 92.9">
  <defs>
    <style>
      .cls-1 {
        stroke-width: 0px;
      }
    </style>
  </defs>
  <path class="cls-1" d="m131.2,62.5c0,2.8,2.2,5,4.9,5.1s5-2.2,5.1-4.9l1-56.6c0-2.8-2.1-5-4.9-5.1,0,0,0,0,0,0L80.7,0c-2.8,0-5,2.2-5.1,4.9s2.2,5,4.9,5.1l44.5.8-45.3,43.7c-14.1,13.7-26,21.7-37.5,25.6-11.3,3.8-22.7,3.7-36,.1-2.7-.7-5.4.9-6.1,3.5-.7,2.7.9,5.4,3.5,6.1,14.8,4,28.2,4.3,41.8-.3,13.5-4.5,26.6-13.7,41.2-27.9l45.3-43.7-.8,44.5Z"/>
</svg>