<?xml version="1.0" encoding="UTF-8"?>
<svg id="Layer_1" data-name="Layer 1" xmlns="http://www.w3.org/2000/svg" viewBox="0 0 142.2 92.9">
  <defs>
    <style>
      .cls-1 {
        stroke-width: 0px;
      }
    </style>
  </defs>
  <path class="cls-1" d="m10.2,18l45.3,43.7c14.6,14.1,27.8,23.3,41.2,27.9,13.6,4.6,27,4.3,41.8.3,2.7-.7,4.2-3.5,3.5-6.1-.7-2.7-3.5-4.2-6.1-3.5-13.3,3.6-24.7,3.7-36-.1-11.5-3.9-23.3-11.9-37.5-25.6L17.2,10.8l44.5-.8c2.8,0,5-2.3,4.9-5.1S64.2,0,61.5,0L4.9,1s0,0,0,0C2.1,1,0,3.3,0,6.1l1,56.6c0,2.8,2.3,5,5.1,4.9s5-2.3,4.9-5.1l-.8-44.5Z"/>
</svg>